PathFileType	4	(X/Y/Z)	Patient3_R_AnkleIso_Processed.trc
DataRate	CameraRate	NumFrames	NumMarkers	Units	OrigDataRate	OrigDataStartFrame	OrigNumFrames
100.000000000000	100.000000000000	5	33	mm	100.000000000000	226	       301
Frame#	Time	L.Toe			R.Toe			R.Shoulder			L.Heel			Neck			R.Heel			L.Shank.Lateral			R.Shank.Lateral			L.Midfoot.Superior			L.Elbow			R.Midfoot.Lateral			R.Midfoot.Superior			L.Shoulder			R.Thigh.Lateral			R.Elbow			Sacral			L.Thigh.Superior			R.Patella			R.Wrist			R.Shank.Superior			L.Wrist			R.Shank.Inferior			R.Thigh.Superior			R.Thigh.Inferior			L.Asis			L.Shank.Inferior			L.Midfoot.Lateral			Sternum			L.Shank.Superior			R.Asis			L.Patella			L.Thigh.Lateral			L.Thigh.Inferior			
		X1	Y1	Z1	X2	Y2	Z2	X3	Y3	Z3	X4	Y4	Z4	X5	Y5	Z5	X6	Y6	Z6	X7	Y7	Z7	X8	Y8	Z8	X9	Y9	Z9	X10	Y10	Z10	X11	Y11	Z11	X12	Y12	Z12	X13	Y13	Z13	X14	Y14	Z14	X15	Y15	Z15	X16	Y16	Z16	X17	Y17	Z17	X18	Y18	Z18	X19	Y19	Z19	X20	Y20	Z20	X21	Y21	Z21	X22	Y22	Z22	X23	Y23	Z23	X24	Y24	Z24	X25	Y25	Z25	X26	Y26	Z26	X27	Y27	Z27	X28	Y28	Z28	X29	Y29	Z29	X30	Y30	Z30	X31	Y31	Z31	X32	Y32	Z32	X33	Y33	Z33	

226	2.750000000000	705.501408306740	42.980846593995	376.833495158845	1110.357153479823	239.382721194844	729.946079694288	449.566417961194	1440.273318961909	513.693397063606	414.868385253885	33.002487400841	427.099770448886	420.419076542670	1464.032554624054	365.593516396814	855.575932881001	123.182694913738	633.053161980449	482.820839812316	325.252784561013	294.420436777556	742.177467409645	425.204405099085	679.112855563817	586.012417847590	90.181452559933	390.275977198251	363.269106082059	1116.879189144254	96.805670974164	909.809291572982	163.865060881400	713.443222825488	990.938921926880	237.022312411962	675.433491573823	467.910614281958	1431.180090161982	222.122771178668	623.913949758074	723.430306858421	633.041983883189	541.272635962396	1131.860316966371	652.181728796020	412.101662034401	967.592367794679	376.469604571359	663.555447165068	738.436428829447	305.133383430882	773.045837187352	606.793006671577	596.972444744352	635.111373679660	1267.993363903540	464.212686372485	799.126662520198	502.084020302039	634.022872538786	537.027315700333	1006.094960531897	-58.780052547931	876.112923743991	342.678621548505	649.145791817407	682.738217631072	799.732820770759	573.890417964788	727.564763961780	697.391255240199	579.340686159693	614.350221297845	967.035077749771	279.376287250409	550.809424042039	229.738415918807	365.545159961423	490.491904209992	27.128904882701	359.281146145029	561.187014475824	1374.880550820933	380.628850142720	575.423840175025	380.913666836097	334.546782070220	547.081772572299	996.601997917583	532.450312039204	620.248751841906	490.149713276221	346.013639624616	566.774775215000	656.888043274537	258.403526252632	643.780878261258	608.703863620445	324.525915346042	
227	2.760000000000	705.508885602142	42.965722075940	376.834541383508	1110.722511185421	236.702591633493	730.742415147685	449.696228214794	1440.165498428934	513.756560885841	414.872269850141	33.006134287431	427.099340672021	420.495391925411	1463.970723768319	365.677938392495	854.602483167798	123.860976041207	633.495433389247	482.957855086231	325.249968033951	294.431378664318	741.992443425379	425.160342196975	679.528796040431	586.025659207073	90.182408746010	390.288412772069	363.320842672326	1116.846714688568	96.891529724281	909.309657356477	163.617681427835	714.020943729093	991.221210441227	236.015125777488	676.237851473722	467.928641017484	1431.177909999251	222.172865556466	623.939876169468	723.403092600086	633.206816403869	541.579995598745	1131.751391583964	652.105470804714	412.437631420757	967.557201379175	376.414772155789	663.830837548876	738.385353085395	305.148151176681	773.091293403742	606.706133647637	597.428986376462	635.291601027998	1267.993586894393	464.153758602955	799.032756856279	502.015711072777	634.514892640891	537.062830475085	1006.147410735520	-58.779323930613	876.000534998865	342.642300937035	649.843833806319	682.888515647712	799.682762052153	574.137585340595	727.666437592851	697.320660705921	579.691993731980	614.698123937469	966.998199729024	279.361558802133	550.886689544267	229.715792430409	365.552878762783	490.495363985672	27.133011633594	359.279118804843	561.298866440910	1374.863056907278	380.637079120443	575.552696878494	380.887747912680	334.573563427516	547.363657364035	996.590533957241	532.440801875864	620.419954980777	490.105375523949	346.027939937765	567.035513352146	656.853261543247	258.400601823127	644.026450474614	608.663573114999	324.545808222502	
228	2.770000000000	705.517237253271	42.948404942951	376.835006814392	1111.135625921636	233.920300354584	731.473738250700	449.831727237296	1440.060952340120	513.820836349578	414.876418574459	33.009805013279	427.098872553372	420.570643711323	1463.909313456801	365.763778107248	853.616602795845	124.599275836112	633.944245509363	483.095910485844	325.244480317652	294.451492336954	741.829497882735	425.131802551961	679.953065425085	586.038044237432	90.181151959068	390.301827510703	363.371599240627	1116.810560170603	96.992338664621	908.838351687106	163.378526896665	714.591481035658	991.543391315871	234.983610222666	677.019136108860	467.946213590178	1431.177541487167	222.223585256820	623.974134947478	723.382485440340	633.373861931972	541.914557517552	1131.655379031628	652.031438928126	412.784960325729	967.528588367860	376.363129744306	664.109294241461	738.329744684596	305.188334134830	773.148167576357	606.630677572728	597.885854207072	635.486155664397	1268.010178306880	464.093584670686	798.952732642203	501.959066244169	635.005415659284	537.092153059873	1006.201366661183	-58.773036073858	875.909313986105	342.620110561962	650.543345295097	683.046509028122	799.640389146574	574.389023594767	727.777494521234	697.259428272221	580.046133331163	615.060481881427	966.958948261592	279.357115606752	550.962411236326	229.695372125878	365.571675433085	490.499038345617	27.137210279911	359.276869035423	561.415368031571	1374.854893106720	380.645238859038	575.676146082826	380.870092238816	334.613387885562	547.652418800048	996.580614905317	532.437409673831	620.572427654227	490.064679118146	346.063150299970	567.299451654837	656.818239799822	258.408643143184	644.272326996317	608.625411501071	324.591742887866	
229	2.780000000000	705.526433975575	42.928953233249	376.834989858411	1111.593263611556	231.044250894845	732.136133355982	449.973286404017	1439.960409460076	513.885924038650	414.880771724566	33.013507591821	427.098327558014	420.645728150343	1463.848971121657	365.850661026967	852.621457555688	125.397255993679	634.399396358224	483.234890997082	325.236698887869	294.480363889148	741.690118689942	425.119927101594	680.384392769365	586.049468987055	90.177769946900	390.316118512508	363.421262694886	1116.772163512261	97.106731742161	908.396417227563	163.149536461038	715.153563498004	991.904158183232	233.930899130121	677.774351167483	467.964892668315	1431.179365617542	222.274708541180	624.016981664157	723.369415236911	633.543489960672	542.274230519791	1131.572343999544	651.960144412741	413.141922273286	967.506507971146	376.314534032321	664.390336580732	738.270048347850	305.253099327943	773.217004159537	606.567991825107	598.341501919597	635.694454921753	1268.042470970018	464.032710227434	798.887472826072	501.915092910707	635.492993348403	537.115613363103	1006.257533403438	-58.761310842054	875.840235630438	342.613103485357	651.242081378498	683.211410256668	799.606602804115	574.644274134941	727.897840564118	697.208880491859	580.402079455953	615.435766026737	966.917661271593	279.363017273582	551.036639922345	229.677309745028	365.601563750772	490.502874116051	27.141400472060	359.274497680561	561.536977571675	1374.855945073727	380.653356494982	575.794543350702	380.860442987423	334.665902428631	547.946210343671	996.572530899394	532.439909537150	620.706823637204	490.027683450132	346.119118668695	567.566398127465	656.783377725671	258.427510073280	644.519535170978	608.590235565397	324.663158330864	
230	2.790000000000	705.536436213521	42.907476403131	376.834590029379	1112.089921145058	228.087491176061	732.725677628207	450.121187370750	1439.864589252739	513.951474035431	414.885273375619	33.017240500188	427.097666515688	420.721594051084	1463.790332741833	365.938197603457	851.621430843592	126.252521166483	634.860927546374	483.374849993521	325.227082633916	294.517427286876	741.575634665495	425.125631707583	680.821381205908	586.059881797158	90.172429732741	390.331185327474	363.469694148568	1116.732994758226	97.233038078080	907.984734144385	162.932556505033	715.705971853587	992.300525409019	232.861367091146	678.500256100827	467.986185118253	1431.183698548542	222.325990688573	624.068973318003	723.364783799729	633.715874488053	542.656554087939	1131.502193332764	651.892141247167	413.506681684427	967.490787343517	376.268797898666	664.673460387837	738.206794672388	305.341408778179	773.298377052062	606.519117502578	598.793917302830	635.915696590656	1268.089451918725	463.971644165052	798.837910451447	501.884458233598	635.975817877741	537.133746579695	1006.316676805499	-58.744319940750	875.793796592334	342.621797836296	651.937380544370	683.382625471573	799.582225027961	574.902460430928	728.027480316047	697.170136163581	580.758356136435	615.822236401143	966.874711896094	279.379126245183	551.109478584597	229.661724956298	365.642417121919	490.506817585644	27.145495313619	359.272106847388	561.664082426107	1374.865880063026	380.661418777525	575.908355792647	380.858404799689	334.730645767051	548.243181385471	996.566621459092	532.448013413396	620.824159771763	489.994391877930	346.195482932745	567.836157100284	656.749092800211	258.456962942010	644.768926044136	608.558771509579	324.759258037597	
